<svg width="163" height="48" viewBox="0 0 163 48" fill="none" xmlns="http://www.w3.org/2000/svg">
<g clip-path="url(#clip0_441_4219)">
<path d="M156.99 0.959636C158.329 0.959636 159.613 1.49043 160.56 2.43526C161.507 3.38008 162.038 4.66154 162.038 5.99772V41.984C162.038 43.3202 161.507 44.6017 160.56 45.5465C159.613 46.4913 158.329 47.0221 156.99 47.0221H6.74421C5.40533 47.0221 4.12128 46.4913 3.17455 45.5465C2.22782 44.6017 1.69595 43.3202 1.69595 41.984V5.99772C1.69595 4.66154 2.22782 3.38008 3.17455 2.43526C4.12128 1.49043 5.40533 0.959636 6.74421 0.959636H156.99ZM156.99 0H6.74421C5.1503 0 3.62168 0.631901 2.49462 1.75669C1.36755 2.88148 0.734375 4.40703 0.734375 5.99772V41.984C0.734375 43.5747 1.36755 45.1003 2.49462 46.2251C3.62168 47.3499 5.1503 47.9818 6.74421 47.9818H156.99C158.584 47.9818 160.113 47.3499 161.24 46.2251C162.367 45.1003 163 43.5747 163 41.984V5.99772C163 4.40703 162.367 2.88148 161.24 1.75669C160.113 0.631901 158.584 0 156.99 0Z" fill="#0F0F54"/>
<path d="M39.3335 23.1675C39.3003 19.4838 42.3558 17.6917 42.4955 17.6083C40.7651 15.0904 38.0829 14.7464 37.1404 14.7189C34.8877 14.4824 32.7026 16.0642 31.555 16.0642C30.3846 16.0642 28.6175 14.7418 26.713 14.7807C24.2621 14.8184 21.9694 16.2345 20.7119 18.4335C18.1168 22.9172 20.0522 29.5062 22.5385 33.1305C23.7823 34.9054 25.2356 36.8873 27.1378 36.8176C28.9989 36.741 29.694 35.6335 31.9398 35.6335C34.165 35.6335 34.8178 36.8176 36.7579 36.773C38.7552 36.741 40.0126 34.99 41.2129 33.199C42.6501 31.1646 43.2273 29.1611 43.2503 29.0582C43.2033 29.0422 39.3713 27.5827 39.3335 23.1675Z" fill="#0F0F54"/>
<path d="M35.6691 12.3346C36.6701 11.0854 37.3549 9.38582 37.1648 7.66113C35.7161 7.72514 33.9043 8.6612 32.861 9.883C31.9379 10.9596 31.1134 12.7243 31.3264 14.3839C32.9538 14.505 34.6247 13.5644 35.6691 12.3346Z" fill="#0F0F54"/>
<path d="M66.2657 36.5617H63.6649L62.2402 32.094H57.2882L55.9311 36.5617H53.3989L58.3051 21.3516H61.3355L66.2657 36.5617ZM61.8107 30.2196L60.5223 26.2479C60.386 25.8421 60.1307 24.8867 59.7539 23.3826H59.7081C59.558 24.0295 59.3164 24.9849 58.9843 26.2479L57.7188 30.2196H61.8107Z" fill="#0F0F54"/>
<path d="M78.8825 30.9437C78.8825 32.809 78.3774 34.2834 77.3673 35.3657C76.4626 36.3292 75.3391 36.8104 73.998 36.8104C72.5504 36.8104 71.5106 36.2915 70.8773 35.2537H70.8314V41.0312H68.3898V29.2053C68.3898 28.0327 68.3589 26.8292 68.2993 25.5948H70.4466L70.5829 27.3332H70.6287C71.443 26.0234 72.6787 25.3696 74.337 25.3696C75.6334 25.3696 76.7157 25.8805 77.5815 26.9034C78.4496 27.9275 78.8825 29.2739 78.8825 30.9437ZM76.395 31.0329C76.395 29.9654 76.1545 29.0853 75.6712 28.3927C75.1433 27.6704 74.4344 27.3092 73.5457 27.3092C72.9433 27.3092 72.3958 27.5103 71.9068 27.9069C71.4167 28.307 71.096 28.8293 70.946 29.4762C70.8704 29.7779 70.8326 30.0248 70.8326 30.2191V32.0478C70.8326 32.8456 71.0777 33.5187 71.5678 34.0685C72.058 34.6182 72.6947 34.8925 73.4781 34.8925C74.3977 34.8925 75.1135 34.5382 75.6254 33.8319C76.1385 33.1244 76.395 32.1918 76.395 31.0329Z" fill="#0F0F54"/>
<path d="M91.523 30.9437C91.523 32.809 91.0179 34.2834 90.0067 35.3657C89.1031 36.3292 87.9796 36.8104 86.6385 36.8104C85.1909 36.8104 84.151 36.2915 83.5189 35.2537H83.473V41.0312H81.0314V29.2053C81.0314 28.0327 81.0005 26.8292 80.9409 25.5948H83.0882L83.2245 27.3332H83.2703C84.0835 26.0234 85.3192 25.3696 86.9786 25.3696C88.2739 25.3696 89.3562 25.8805 90.2243 26.9034C91.0889 27.9275 91.523 29.2739 91.523 30.9437ZM89.0355 31.0329C89.0355 29.9654 88.7938 29.0853 88.3105 28.3927C87.7826 27.6704 87.076 27.3092 86.1861 27.3092C85.5826 27.3092 85.0363 27.5103 84.5461 27.9069C84.056 28.307 83.7365 28.8293 83.5864 29.4762C83.512 29.7779 83.473 30.0248 83.473 30.2191V32.0478C83.473 32.8456 83.7181 33.5187 84.206 34.0685C84.6962 34.6171 85.3329 34.8925 86.1186 34.8925C87.0382 34.8925 87.754 34.5382 88.2659 33.8319C88.779 33.1244 89.0355 32.1918 89.0355 31.0329Z" fill="#0F0F54"/>
<path d="M105.655 32.296C105.655 33.5898 105.205 34.6425 104.302 35.4551C103.309 36.3431 101.926 36.7866 100.15 36.7866C98.5102 36.7866 97.1954 36.4712 96.2002 35.8391L96.7659 33.8081C97.8379 34.455 99.0141 34.7796 100.296 34.7796C101.215 34.7796 101.931 34.5716 102.445 34.1579C102.957 33.7441 103.213 33.1886 103.213 32.496C103.213 31.8788 103.002 31.3588 102.579 30.9371C102.159 30.5153 101.457 30.1233 100.477 29.761C97.8081 28.7678 96.4751 27.3128 96.4751 25.3996C96.4751 24.1492 96.9423 23.124 97.878 22.3262C98.8102 21.5273 100.054 21.1284 101.609 21.1284C102.996 21.1284 104.148 21.3696 105.068 21.8508L104.457 23.8372C103.598 23.3709 102.627 23.1377 101.54 23.1377C100.682 23.1377 100.01 23.3491 99.5294 23.7697C99.1229 24.1458 98.919 24.6041 98.919 25.147C98.919 25.7482 99.1515 26.2453 99.6187 26.6362C100.025 26.9974 100.764 27.3883 101.836 27.81C103.147 28.3369 104.11 28.9529 104.73 29.6593C105.347 30.3633 105.655 31.2445 105.655 32.296Z" fill="#0F0F54"/>
<path d="M113.728 27.4228H111.037V32.7477C111.037 34.1021 111.511 34.7787 112.461 34.7787C112.898 34.7787 113.26 34.741 113.546 34.6655L113.613 36.516C113.132 36.6954 112.499 36.7857 111.715 36.7857C110.75 36.7857 109.997 36.492 109.453 35.9056C108.911 35.3182 108.638 34.333 108.638 32.9489V27.4205H107.035V25.5918H108.638V23.5837L111.037 22.8613V25.5918H113.728V27.4228Z" fill="#0F0F54"/>
<path d="M125.872 30.9871C125.872 32.673 125.388 34.0571 124.424 35.1394C123.413 36.2538 122.07 36.8092 120.397 36.8092C118.785 36.8092 117.501 36.2755 116.544 35.208C115.586 34.1405 115.107 32.793 115.107 31.1689C115.107 29.4693 115.6 28.0772 116.588 26.9949C117.574 25.9114 118.905 25.3696 120.578 25.3696C122.191 25.3696 123.488 25.9034 124.467 26.972C125.404 28.0087 125.872 29.347 125.872 30.9871ZM123.338 31.066C123.338 30.0545 123.122 29.187 122.683 28.4635C122.171 27.5881 121.439 27.1515 120.491 27.1515C119.51 27.1515 118.764 27.5892 118.252 28.4635C117.814 29.1882 117.597 30.0694 117.597 31.1117C117.597 32.1232 117.814 32.9907 118.252 33.713C118.78 34.5885 119.518 35.0251 120.469 35.0251C121.402 35.0251 122.133 34.5794 122.661 33.6902C123.112 32.953 123.338 32.0764 123.338 31.066Z" fill="#0F0F54"/>
<path d="M133.807 27.7378C133.565 27.6932 133.308 27.6704 133.037 27.6704C132.178 27.6704 131.514 27.9938 131.047 28.6418C130.64 29.2133 130.436 29.9356 130.436 30.8077V36.5624H127.996L128.019 29.0487C128.019 27.7846 127.988 26.6337 127.927 25.5959H130.054L130.143 27.6944H130.211C130.469 26.9732 130.875 26.3926 131.432 25.9571C131.976 25.5651 132.563 25.3696 133.197 25.3696C133.422 25.3696 133.626 25.3856 133.807 25.4142V27.7378Z" fill="#0F0F54"/>
<path d="M144.728 30.5598C144.728 30.9964 144.699 31.3644 144.638 31.665H137.313C137.342 32.7485 137.696 33.5771 138.376 34.1486C138.993 34.6595 139.792 34.9155 140.772 34.9155C141.856 34.9155 142.846 34.7429 143.736 34.3966L144.118 36.0881C143.078 36.5407 141.851 36.7659 140.434 36.7659C138.73 36.7659 137.392 36.2653 136.419 35.2652C135.448 34.2651 134.961 32.9222 134.961 31.2375C134.961 29.5837 135.413 28.2065 136.319 27.1081C137.267 25.9354 138.549 25.3491 140.161 25.3491C141.745 25.3491 142.944 25.9354 143.759 27.1081C144.403 28.0396 144.728 29.1917 144.728 30.5598ZM142.399 29.9277C142.415 29.2054 142.256 28.5813 141.925 28.0544C141.503 27.3767 140.853 27.0384 139.979 27.0384C139.181 27.0384 138.532 27.3687 138.036 28.0316C137.629 28.5585 137.388 29.1905 137.313 29.9266H142.399V29.9277Z" fill="#0F0F54"/>
<path d="M61.0037 11.9979C61.0037 13.3431 60.5994 14.3558 59.792 15.0358C59.0441 15.6633 57.9814 15.9776 56.6048 15.9776C55.9222 15.9776 55.3381 15.9479 54.8491 15.8885V8.53825C55.487 8.43539 56.1742 8.38281 56.9163 8.38281C58.2276 8.38281 59.2159 8.6674 59.8825 9.23658C60.6292 9.88005 61.0037 10.8001 61.0037 11.9979ZM59.7382 12.0311C59.7382 11.159 59.5068 10.4904 59.0441 10.0241C58.5815 9.55889 57.9058 9.32573 57.0159 9.32573C56.638 9.32573 56.3162 9.35088 56.0493 9.40345V14.9913C56.1971 15.0141 56.4673 15.0244 56.8602 15.0244C57.7787 15.0244 58.4876 14.7695 58.9869 14.2598C59.4862 13.75 59.7382 13.0071 59.7382 12.0311Z" fill="#0F0F54"/>
<path d="M67.7139 13.1707C67.7139 13.9993 67.4768 14.6782 67.0027 15.2108C66.5056 15.7583 65.8471 16.0314 65.0248 16.0314C64.2323 16.0314 63.6013 15.7697 63.1306 15.2439C62.661 14.7193 62.4263 14.0576 62.4263 13.2598C62.4263 12.4255 62.6679 11.7409 63.1535 11.2094C63.6391 10.6779 64.2919 10.4116 65.1142 10.4116C65.9067 10.4116 66.5434 10.6734 67.0256 11.198C67.4837 11.7077 67.7139 12.366 67.7139 13.1707ZM66.469 13.2095C66.469 12.7123 66.3613 12.286 66.1472 11.9306C65.8952 11.5008 65.5367 11.286 65.0706 11.286C64.5885 11.286 64.222 11.5008 63.9701 11.9306C63.7547 12.286 63.6482 12.7192 63.6482 13.2312C63.6482 13.7284 63.7559 14.1547 63.9701 14.5102C64.23 14.9399 64.5919 15.1548 65.0592 15.1548C65.5173 15.1548 65.8769 14.9365 66.1357 14.4988C66.3579 14.1364 66.469 13.7067 66.469 13.2095Z" fill="#0F0F54"/>
<path d="M76.7112 10.522L75.0219 15.9098H73.9225L73.2228 13.5702C73.0452 12.9861 72.9009 12.4055 72.7887 11.8295H72.7669C72.6627 12.4215 72.5184 13.001 72.3329 13.5702L71.5896 15.9098H70.4776L68.8892 10.522H70.1226L70.733 13.0833C70.8807 13.689 71.0021 14.2662 71.0995 14.8125H71.1212C71.2106 14.3622 71.3583 13.7885 71.5667 13.0947L72.3329 10.5231H73.3109L74.045 13.0399C74.2225 13.6536 74.3668 14.2445 74.4779 14.8137H74.5112C74.5925 14.2594 74.715 13.6685 74.8776 13.0399L75.5327 10.5231H76.7112V10.522Z" fill="#0F0F54"/>
<path d="M82.9328 15.9091H81.7326V12.8232C81.7326 11.8723 81.3707 11.3968 80.6446 11.3968C80.2885 11.3968 80.001 11.5271 79.7777 11.7889C79.5566 12.0506 79.4444 12.3592 79.4444 12.7124V15.908H78.2442V12.0609C78.2442 11.5877 78.2293 11.0745 78.2007 10.5191H79.2554L79.3116 11.3614H79.3448C79.4845 11.0997 79.6929 10.8837 79.9666 10.7111C80.2919 10.5099 80.6561 10.4082 81.0546 10.4082C81.5585 10.4082 81.9777 10.5705 82.311 10.8962C82.7255 11.2951 82.9328 11.8906 82.9328 12.6815V15.9091Z" fill="#0F0F54"/>
<path d="M86.243 15.9098H85.0439V8.0498H86.243V15.9098Z" fill="#0F0F54"/>
<path d="M93.3091 13.1707C93.3091 13.9993 93.072 14.6782 92.5979 15.2108C92.1008 15.7583 91.4412 16.0314 90.62 16.0314C89.8264 16.0314 89.1954 15.7697 88.7258 15.2439C88.2563 14.7193 88.0215 14.0576 88.0215 13.2598C88.0215 12.4255 88.2631 11.7409 88.7487 11.2094C89.2343 10.6779 89.8871 10.4116 90.7082 10.4116C91.5019 10.4116 92.1375 10.6734 92.6208 11.198C93.0789 11.7077 93.3091 12.366 93.3091 13.1707ZM92.063 13.2095C92.063 12.7123 91.9554 12.286 91.7412 11.9306C91.4904 11.5008 91.1308 11.286 90.6658 11.286C90.1826 11.286 89.8161 11.5008 89.5653 11.9306C89.35 12.286 89.2435 12.7192 89.2435 13.2312C89.2435 13.7284 89.3511 14.1547 89.5653 14.5102C89.8252 14.9399 90.1871 15.1548 90.6544 15.1548C91.1125 15.1548 91.471 14.9365 91.7298 14.4988C91.9531 14.1364 92.063 13.7067 92.063 13.2095Z" fill="#0F0F54"/>
<path d="M99.1171 15.9091H98.0395L97.9501 15.2885H97.9169C97.5482 15.7834 97.0225 16.0314 96.3399 16.0314C95.8303 16.0314 95.418 15.868 95.1077 15.5434C94.8259 15.2485 94.6851 14.8816 94.6851 14.4462C94.6851 13.7878 94.9599 13.2861 95.5131 12.9386C96.0651 12.5912 96.8415 12.4209 97.8413 12.4289V12.3283C97.8413 11.6186 97.468 11.2642 96.7201 11.2642C96.1876 11.2642 95.7181 11.398 95.3127 11.6631L95.0687 10.8768C95.5703 10.5671 96.1899 10.4116 96.9206 10.4116C98.3315 10.4116 99.0393 11.1545 99.0393 12.6403V14.6245C99.0393 15.1628 99.0656 15.5914 99.1171 15.9091ZM97.8711 14.0576V13.2267C96.5472 13.2038 95.8853 13.5661 95.8853 14.3125C95.8853 14.5936 95.9609 14.8039 96.1155 14.9445C96.2701 15.0851 96.467 15.1548 96.7018 15.1548C96.9652 15.1548 97.2115 15.0714 97.4359 14.9056C97.6615 14.7388 97.8001 14.5273 97.8516 14.2679C97.8642 14.2096 97.8711 14.1387 97.8711 14.0576Z" fill="#0F0F54"/>
<path d="M105.937 15.9098H104.872L104.816 15.0446H104.783C104.443 15.7029 103.863 16.0321 103.049 16.0321C102.398 16.0321 101.857 15.7772 101.427 15.2674C100.998 14.7577 100.784 14.0959 100.784 13.2833C100.784 12.4112 101.016 11.7049 101.483 11.1654C101.936 10.6625 102.49 10.4111 103.15 10.4111C103.875 10.4111 104.382 10.6545 104.671 11.1426H104.694V8.0498H105.895V14.4582C105.895 14.9828 105.909 15.4663 105.937 15.9098ZM104.694 13.6376V12.7393C104.694 12.5838 104.682 12.4581 104.66 12.3621C104.593 12.0741 104.447 11.8318 104.226 11.6363C104.003 11.4409 103.734 11.3426 103.423 11.3426C102.976 11.3426 102.625 11.5198 102.368 11.8752C102.112 12.2307 101.983 12.6844 101.983 13.2387C101.983 13.7713 102.105 14.2034 102.352 14.536C102.611 14.8903 102.962 15.0674 103.401 15.0674C103.795 15.0674 104.109 14.92 104.349 14.624C104.58 14.3508 104.694 14.0216 104.694 13.6376Z" fill="#0F0F54"/>
<path d="M116.202 13.1707C116.202 13.9993 115.965 14.6782 115.49 15.2108C114.993 15.7583 114.336 16.0314 113.513 16.0314C112.721 16.0314 112.09 15.7697 111.618 15.2439C111.149 14.7193 110.914 14.0576 110.914 13.2598C110.914 12.4255 111.156 11.7409 111.641 11.2094C112.127 10.6779 112.78 10.4116 113.603 10.4116C114.394 10.4116 115.032 10.6734 115.513 11.198C115.971 11.7077 116.202 12.366 116.202 13.1707ZM114.958 13.2095C114.958 12.7123 114.85 12.286 114.636 11.9306C114.383 11.5008 114.026 11.286 113.558 11.286C113.077 11.286 112.711 11.5008 112.458 11.9306C112.243 12.286 112.136 12.7192 112.136 13.2312C112.136 13.7284 112.244 14.1547 112.458 14.5102C112.718 14.9399 113.08 15.1548 113.547 15.1548C114.005 15.1548 114.366 14.9365 114.625 14.4988C114.846 14.1364 114.958 13.7067 114.958 13.2095Z" fill="#0F0F54"/>
<path d="M122.655 15.9091H121.456V12.8232C121.456 11.8723 121.094 11.3968 120.367 11.3968C120.01 11.3968 119.723 11.5271 119.501 11.7889C119.279 12.0506 119.168 12.3592 119.168 12.7124V15.908H117.966V12.0609C117.966 11.5877 117.952 11.0745 117.924 10.5191H118.977L119.034 11.3614H119.067C119.208 11.0997 119.416 10.8837 119.689 10.7111C120.015 10.5099 120.378 10.4082 120.778 10.4082C121.281 10.4082 121.7 10.5705 122.033 10.8962C122.449 11.2951 122.655 11.8906 122.655 12.6815V15.9091Z" fill="#0F0F54"/>
<path d="M130.732 11.4187H129.411V14.036C129.411 14.7012 129.645 15.0338 130.11 15.0338C130.326 15.0338 130.504 15.0155 130.645 14.9778L130.676 15.8864C130.439 15.9756 130.128 16.0201 129.744 16.0201C129.27 16.0201 128.901 15.8761 128.634 15.5881C128.366 15.3001 128.233 14.8155 128.233 14.1354V11.4187H127.444V10.5215H128.233V9.534L129.41 9.17969V10.5203H130.731V11.4187H130.732Z" fill="#0F0F54"/>
<path d="M137.086 15.9098H135.885V12.8467C135.885 11.8809 135.523 11.3975 134.798 11.3975C134.241 11.3975 133.861 11.6775 133.653 12.2375C133.617 12.3552 133.597 12.4992 133.597 12.6684V15.9086H132.397V8.0498H133.597V11.2969H133.619C133.997 10.706 134.539 10.4111 135.241 10.4111C135.738 10.4111 136.149 10.5734 136.476 10.8991C136.882 11.3049 137.086 11.9083 137.086 12.7061V15.9098Z" fill="#0F0F54"/>
<path d="M143.641 12.9604C143.641 13.1753 143.625 13.3558 143.596 13.5033H139.996C140.012 14.0359 140.184 14.4416 140.517 14.7228C140.822 14.9742 141.215 15.1 141.696 15.1C142.228 15.1 142.714 15.0154 143.152 14.8451L143.339 15.6771C142.827 15.8989 142.225 16.0097 141.528 16.0097C140.692 16.0097 140.033 15.764 139.557 15.2725C139.078 14.7811 138.841 14.1216 138.841 13.2941C138.841 12.4815 139.062 11.8049 139.507 11.2654C139.972 10.6894 140.601 10.4014 141.395 10.4014C142.171 10.4014 142.761 10.6894 143.16 11.2654C143.481 11.7226 143.641 12.2883 143.641 12.9604ZM142.495 12.6507C142.504 12.2952 142.425 11.9889 142.263 11.7306C142.054 11.398 141.737 11.2311 141.308 11.2311C140.916 11.2311 140.596 11.3934 140.353 11.7192C140.153 11.9786 140.035 12.2883 139.996 12.6507H142.495Z" fill="#0F0F54"/>
</g>
<defs>
<clipPath id="clip0_441_4219">
<rect width="162.266" height="47.9818" fill="white" transform="translate(0.734375)"/>
</clipPath>
</defs>
</svg>
