<svg width="163" height="48" fill="none" xmlns="http://www.w3.org/2000/svg"><g clip-path="url(#a)" fill="#0F0F54"><path d="M156.99.96c1.339 0 2.623.53 3.57 1.475a5.031 5.031 0 0 1 1.478 3.563v35.986a5.031 5.031 0 0 1-1.478 3.563 5.055 5.055 0 0 1-3.57 1.475H6.744a5.054 5.054 0 0 1-3.57-1.475 5.033 5.033 0 0 1-1.478-3.563V5.998c0-1.336.532-2.618 1.479-3.563A5.053 5.053 0 0 1 6.745.96H156.99Zm0-.96H6.744a6.016 6.016 0 0 0-4.25 1.757 5.992 5.992 0 0 0-1.76 4.24v35.987c0 1.59.634 3.116 1.76 4.241a6.016 6.016 0 0 0 4.25 1.757H156.99a6.017 6.017 0 0 0 4.25-1.757 5.992 5.992 0 0 0 1.76-4.241V5.998c0-1.591-.633-3.117-1.76-4.241A6.017 6.017 0 0 0 156.99 0Z"/><path d="M39.334 23.168c-.034-3.684 3.022-5.476 3.161-5.56-1.73-2.518-4.412-2.862-5.355-2.89-2.252-.236-4.437 1.346-5.585 1.346-1.17 0-2.938-1.322-4.842-1.283-2.45.037-4.744 1.454-6.001 3.652-2.595 4.484-.66 11.073 1.826 14.697 1.244 1.775 2.698 3.757 4.6 3.688 1.86-.077 2.556-1.184 4.802-1.184 2.225 0 2.878 1.184 4.818 1.139 1.997-.032 3.255-1.783 4.455-3.574 1.437-2.034 2.014-4.038 2.037-4.14-.047-.017-3.879-1.476-3.916-5.892ZM35.67 12.335c1-1.25 1.685-2.95 1.495-4.674-1.449.064-3.26 1-4.304 2.222-.923 1.077-1.748 2.841-1.535 4.5 1.628.122 3.299-.819 4.343-2.048ZM66.266 36.562h-2.601l-1.425-4.468h-4.952l-1.357 4.468H53.4l4.906-15.21h3.03l4.93 15.21ZM61.81 30.22l-1.289-3.972c-.136-.406-.391-1.361-.768-2.865h-.046c-.15.646-.392 1.602-.724 2.865L57.72 30.22h4.092ZM78.882 30.944c0 1.865-.505 3.34-1.515 4.422-.904.963-2.028 1.444-3.369 1.444-1.448 0-2.487-.519-3.12-1.556h-.047v5.777H68.39V29.205c0-1.172-.031-2.376-.09-3.61h2.147l.136 1.738h.046c.814-1.31 2.05-1.963 3.708-1.963 1.296 0 2.379.51 3.245 1.533.868 1.024 1.3 2.37 1.3 4.04Zm-2.487.089c0-1.068-.24-1.948-.724-2.64-.528-.723-1.237-1.084-2.125-1.084-.603 0-1.15.201-1.64.598-.49.4-.81.922-.96 1.57a3.183 3.183 0 0 0-.113.742v1.829c0 .798.245 1.47.735 2.02s1.127.825 1.91.825c.92 0 1.636-.355 2.147-1.061.513-.708.77-1.64.77-2.8ZM91.523 30.944c0 1.865-.505 3.34-1.516 4.422-.904.963-2.027 1.444-3.369 1.444-1.447 0-2.487-.519-3.12-1.556h-.045v5.777h-2.442V29.205c0-1.172-.03-2.376-.09-3.61h2.147l.137 1.738h.045c.814-1.31 2.05-1.963 3.709-1.963 1.295 0 2.377.51 3.245 1.533.865 1.024 1.299 2.37 1.299 4.04Zm-2.487.089c0-1.068-.242-1.948-.725-2.64-.528-.723-1.235-1.084-2.125-1.084-.603 0-1.15.201-1.64.598-.49.4-.81.922-.96 1.57a3.249 3.249 0 0 0-.113.742v1.829c0 .798.245 1.47.733 2.02.49.55 1.127.825 1.913.825.92 0 1.635-.355 2.147-1.061.513-.708.77-1.64.77-2.8ZM105.655 32.296c0 1.294-.45 2.346-1.353 3.16-.993.887-2.376 1.33-4.152 1.33-1.64 0-2.955-.315-3.95-.947l.566-2.03a6.704 6.704 0 0 0 3.53.97c.919 0 1.635-.207 2.149-.621.512-.414.768-.97.768-1.662 0-.617-.211-1.137-.634-1.559-.42-.422-1.122-.814-2.102-1.176-2.669-.993-4.002-2.448-4.002-4.361 0-1.25.467-2.276 1.403-3.074.932-.799 2.176-1.198 3.731-1.198 1.387 0 2.539.242 3.459.723l-.611 1.986c-.859-.466-1.83-.7-2.917-.7-.858 0-1.53.212-2.01.633-.407.376-.611.834-.611 1.377 0 .601.233 1.098.7 1.49.406.36 1.145.751 2.217 1.173 1.311.527 2.274 1.143 2.894 1.85.617.703.925 1.584.925 2.636ZM113.728 27.423h-2.691v5.325c0 1.354.474 2.03 1.424 2.03.437 0 .799-.037 1.085-.112l.067 1.85c-.481.18-1.114.27-1.898.27-.965 0-1.718-.294-2.262-.88-.542-.588-.815-1.573-.815-2.957V27.42h-1.603v-1.83h1.603v-2.007l2.399-.723v2.73h2.691v1.832ZM125.872 30.987c0 1.686-.484 3.07-1.448 4.152-1.011 1.115-2.354 1.67-4.027 1.67-1.612 0-2.896-.533-3.853-1.601-.958-1.067-1.437-2.415-1.437-4.04 0-1.699.493-3.09 1.481-4.173.986-1.084 2.317-1.625 3.99-1.625 1.613 0 2.91.533 3.889 1.602.937 1.037 1.405 2.375 1.405 4.015Zm-2.534.079c0-1.011-.216-1.879-.655-2.602-.512-.876-1.244-1.313-2.192-1.313-.981 0-1.727.438-2.239 1.313-.438.724-.655 1.605-.655 2.648 0 1.011.217 1.879.655 2.601.528.876 1.266 1.312 2.217 1.312.933 0 1.664-.446 2.192-1.335.451-.737.677-1.614.677-2.624ZM133.807 27.738a4.247 4.247 0 0 0-.77-.068c-.859 0-1.523.324-1.99.972-.407.571-.611 1.294-.611 2.166v5.754h-2.44l.023-7.513a59.22 59.22 0 0 0-.092-3.453h2.127l.089 2.098h.068c.258-.72.664-1.301 1.221-1.737a2.955 2.955 0 0 1 1.765-.587c.225 0 .429.016.61.044v2.324ZM144.728 30.56c0 .436-.029.804-.09 1.105h-7.325c.029 1.084.383 1.912 1.063 2.484.617.51 1.416.767 2.396.767 1.084 0 2.074-.173 2.964-.52l.382 1.692c-1.04.453-2.267.678-3.684.678-1.704 0-3.042-.5-4.015-1.5-.971-1-1.458-2.344-1.458-4.028 0-1.654.452-3.032 1.358-4.13.948-1.173 2.23-1.759 3.842-1.759 1.584 0 2.783.586 3.598 1.76.644.93.969 2.083.969 3.45Zm-2.329-.632c.016-.723-.143-1.347-.474-1.874-.422-.677-1.072-1.016-1.946-1.016-.798 0-1.447.33-1.943.994-.407.526-.648 1.159-.723 1.895h5.086ZM61.004 11.998c0 1.345-.405 2.358-1.212 3.038-.748.627-1.81.942-3.187.942-.683 0-1.267-.03-1.756-.09v-7.35a12.982 12.982 0 0 1 2.067-.155c1.312 0 2.3.284 2.967.854.746.643 1.12 1.563 1.12 2.76Zm-1.266.033c0-.872-.231-1.54-.694-2.007-.462-.465-1.138-.698-2.028-.698-.378 0-.7.025-.967.077v5.588c.148.023.418.033.811.033.919 0 1.628-.254 2.127-.764.5-.51.751-1.253.751-2.229ZM67.714 13.17c0 .83-.237 1.508-.711 2.04-.497.548-1.156.821-1.978.821-.793 0-1.424-.261-1.894-.787-.47-.525-.705-1.186-.705-1.984 0-.835.242-1.52.727-2.05.486-.532 1.139-.798 1.961-.798.793 0 1.43.261 1.912.786.458.51.688 1.168.688 1.973Zm-1.245.04c0-.498-.108-.924-.322-1.28-.252-.43-.61-.644-1.076-.644-.483 0-.849.215-1.1.645-.216.355-.323.788-.323 1.3 0 .497.108.924.322 1.28.26.429.622.644 1.09.644.457 0 .817-.218 1.076-.656.222-.363.333-.792.333-1.29ZM76.711 10.522l-1.69 5.388h-1.099l-.7-2.34a17.455 17.455 0 0 1-.433-1.74h-.022a12.727 12.727 0 0 1-.434 1.74l-.743 2.34h-1.112l-1.589-5.388h1.234l.61 2.561c.148.606.27 1.183.367 1.73h.021c.09-.45.237-1.024.446-1.718l.766-2.572h.978l.734 2.517c.177.614.322 1.205.433 1.774h.033a16.92 16.92 0 0 1 .367-1.774l.655-2.517h1.178v-.001ZM82.933 15.91h-1.2v-3.087c0-.95-.362-1.426-1.088-1.426-.356 0-.644.13-.867.392-.221.262-.334.57-.334.923v3.196h-1.2v-3.847c0-.473-.015-.986-.043-1.542h1.054l.057.842h.033c.14-.261.348-.477.622-.65.325-.201.69-.303 1.088-.303.503 0 .923.162 1.256.488.414.4.622.995.622 1.785v3.228ZM86.243 15.91h-1.2V8.05h1.2v7.86ZM93.31 13.17c0 .83-.238 1.508-.712 2.04-.497.548-1.157.821-1.978.821-.794 0-1.425-.261-1.894-.787-.47-.525-.704-1.186-.704-1.984 0-.835.241-1.52.727-2.05.485-.532 1.138-.798 1.96-.798.793 0 1.428.261 1.912.786.458.51.688 1.168.688 1.973Zm-1.247.04c0-.498-.108-.924-.322-1.28-.25-.43-.61-.644-1.075-.644-.483 0-.85.215-1.1.645-.216.355-.323.788-.323 1.3 0 .497.108.924.322 1.28.26.429.622.644 1.09.644.457 0 .816-.218 1.075-.656.223-.363.333-.792.333-1.29ZM99.117 15.91H98.04l-.089-.621h-.033c-.369.494-.895.742-1.577.742-.51 0-.922-.163-1.232-.488-.282-.294-.423-.661-.423-1.097 0-.658.275-1.16.828-1.507.552-.348 1.328-.518 2.328-.51v-.1c0-.71-.373-1.065-1.12-1.065-.533 0-1.003.134-1.408.4l-.244-.787c.501-.31 1.12-.465 1.852-.465 1.41 0 2.118.742 2.118 2.228v1.984c0 .539.027.967.078 1.285Zm-1.246-1.852v-.831c-1.324-.023-1.986.34-1.986 1.085 0 .282.076.492.23.633a.84.84 0 0 0 .587.21c.263 0 .51-.084.734-.25a1.02 1.02 0 0 0 .435-.847ZM105.937 15.91h-1.065l-.056-.865h-.033c-.34.658-.92.987-1.734.987-.651 0-1.192-.255-1.622-.765-.429-.51-.643-1.171-.643-1.984 0-.872.232-1.578.699-2.118.453-.502 1.007-.754 1.667-.754.725 0 1.232.244 1.521.732h.023V8.05h1.201v6.408c0 .525.014 1.008.042 1.452Zm-1.243-2.272v-.899a1.36 1.36 0 0 0-.468-1.103 1.18 1.18 0 0 0-.803-.293c-.447 0-.798.177-1.055.532-.256.356-.385.81-.385 1.364 0 .532.122.964.369 1.297.259.354.61.531 1.049.531.394 0 .708-.147.948-.443.231-.273.345-.602.345-.986ZM116.202 13.17c0 .83-.237 1.508-.712 2.04-.497.548-1.154.821-1.977.821-.792 0-1.423-.261-1.895-.787-.469-.525-.704-1.186-.704-1.984 0-.835.242-1.52.727-2.05.486-.532 1.139-.798 1.962-.798.791 0 1.429.261 1.91.786.458.51.689 1.168.689 1.973Zm-1.244.04c0-.498-.108-.924-.322-1.28-.253-.43-.61-.644-1.078-.644-.481 0-.847.215-1.1.645-.215.355-.322.788-.322 1.3 0 .497.108.924.322 1.28.26.429.622.644 1.089.644.458 0 .819-.218 1.078-.656.221-.363.333-.792.333-1.29ZM122.655 15.91h-1.199v-3.087c0-.95-.362-1.426-1.089-1.426-.357 0-.644.13-.866.392-.222.262-.333.57-.333.923v3.196h-1.202v-3.847c0-.473-.014-.986-.042-1.542h1.053l.057.842h.033c.141-.261.349-.477.622-.65a2.033 2.033 0 0 1 1.089-.303c.503 0 .922.162 1.255.488.416.4.622.995.622 1.785v3.228ZM130.732 11.419h-1.321v2.617c0 .665.234.998.699.998.216 0 .394-.019.535-.056l.031.908c-.237.09-.548.134-.932.134-.474 0-.843-.144-1.11-.432-.268-.288-.401-.772-.401-1.453V11.42h-.789v-.898h.789v-.987l1.177-.354v1.34h1.321v.899h.001ZM137.086 15.91h-1.201v-3.063c0-.966-.362-1.45-1.087-1.45-.557 0-.937.28-1.145.84a1.485 1.485 0 0 0-.056.431v3.24h-1.2V8.05h1.2v3.247h.022c.378-.591.92-.886 1.622-.886.497 0 .908.162 1.235.488.406.406.61 1.01.61 1.807v3.204ZM143.641 12.96c0 .215-.016.396-.045.543h-3.6c.016.533.188.939.521 1.22.305.251.698.377 1.179.377a3.99 3.99 0 0 0 1.456-.255l.187.832c-.512.222-1.114.333-1.811.333-.836 0-1.495-.246-1.971-.738-.479-.49-.716-1.15-.716-1.978 0-.813.221-1.49.666-2.029.465-.576 1.094-.864 1.888-.864.776 0 1.366.288 1.765.864.321.458.481 1.023.481 1.695Zm-1.146-.31a1.616 1.616 0 0 0-.232-.92c-.209-.332-.526-.499-.955-.499-.392 0-.712.162-.955.488-.2.26-.318.57-.357.932h2.499Z"/></g><defs><clipPath id="a"><path fill="#fff" transform="translate(.734)" d="M0 0h162.266v47.982H0z"/></clipPath></defs></svg>