<svg width="163" height="48" fill="none" xmlns="http://www.w3.org/2000/svg"><g clip-path="url(#a)" fill="#0F0F54"><path d="M156.256.96a5.05 5.05 0 0 1 3.569 1.475 5.032 5.032 0 0 1 1.479 3.563v35.986a5.032 5.032 0 0 1-1.479 3.563 5.05 5.05 0 0 1-3.569 1.475H6.01a5.054 5.054 0 0 1-3.57-1.475 5.033 5.033 0 0 1-1.478-3.563V5.998c0-1.336.531-2.618 1.478-3.563A5.053 5.053 0 0 1 6.01.96h150.246Zm0-.96H6.01a6.016 6.016 0 0 0-4.25 1.757A5.992 5.992 0 0 0 0 5.997v35.987c0 1.59.633 3.116 1.76 4.241a6.016 6.016 0 0 0 4.25 1.757h150.246a6.014 6.014 0 0 0 4.249-1.757 5.993 5.993 0 0 0 1.761-4.241V5.998c0-1.591-.634-3.117-1.761-4.241A6.014 6.014 0 0 0 156.256 0Z"/><path d="M81.903 26.09a5.115 5.115 0 0 0-4.703 3.164 5.088 5.088 0 0 0 1.123 5.547 5.112 5.112 0 0 0 5.564 1.095 5.091 5.091 0 0 0 3.148-4.708 5.016 5.016 0 0 0-1.483-3.635 5.037 5.037 0 0 0-3.65-1.463Zm0 8.193a3.107 3.107 0 0 1-3.015-1.753 3.09 3.09 0 0 1 .528-3.442 3.103 3.103 0 0 1 5.371 2.1 2.947 2.947 0 0 1-1.741 2.836c-.36.162-.749.25-1.144.259Zm-11.19-8.193A5.115 5.115 0 0 0 66 29.245a5.088 5.088 0 0 0 1.115 5.552 5.111 5.111 0 0 0 5.566 1.1 5.106 5.106 0 0 0 2.29-1.878 5.09 5.09 0 0 0 .86-2.83 5.016 5.016 0 0 0-1.482-3.636 5.037 5.037 0 0 0-3.65-1.463h.012Zm0 8.193a3.107 3.107 0 0 1-3.023-1.744 3.09 3.09 0 0 1 .519-3.446 3.103 3.103 0 0 1 5.376 2.095 2.945 2.945 0 0 1-1.741 2.836c-.36.162-.75.25-1.144.259h.012Zm-13.33-6.622v2.16h5.192a4.518 4.518 0 0 1-1.202 2.723 5.314 5.314 0 0 1-4.003 1.583 5.775 5.775 0 0 1-4.08-1.686 5.752 5.752 0 0 1 0-8.143 5.775 5.775 0 0 1 4.08-1.687 5.535 5.535 0 0 1 3.93 1.548l1.527-1.524a7.562 7.562 0 0 0-5.445-2.243 7.959 7.959 0 0 0-5.816 2.209 7.929 7.929 0 0 0-2.438 5.714 7.915 7.915 0 0 0 2.438 5.715 7.944 7.944 0 0 0 5.816 2.208 7.225 7.225 0 0 0 5.541-2.219 7.189 7.189 0 0 0 1.876-5.062 7.02 7.02 0 0 0-.12-1.355l-7.297.06Zm54.461 1.68a4.804 4.804 0 0 0-4.376-3.25 4.817 4.817 0 0 0-3.51 1.509 4.788 4.788 0 0 0-1.297 3.588 4.978 4.978 0 0 0 1.45 3.625 5.011 5.011 0 0 0 3.622 1.473 5.093 5.093 0 0 0 4.255-2.255l-1.743-1.2a2.914 2.914 0 0 1-2.512 1.416 2.6 2.6 0 0 1-2.476-1.547l6.839-2.82-.252-.54Zm-6.972 1.703a2.807 2.807 0 0 1 .147-1.095 2.81 2.81 0 0 1 1.448-1.613 2.8 2.8 0 0 1 1.074-.267 1.988 1.988 0 0 1 1.899 1.08l-4.568 1.895Zm-5.553 4.942h2.248V20.992h-2.248v14.994Zm-3.678-8.756h-.084a3.606 3.606 0 0 0-2.692-1.2 5.125 5.125 0 0 0-3.46 1.58 5.104 5.104 0 0 0 0 7.049 5.125 5.125 0 0 0 3.46 1.58 3.49 3.49 0 0 0 2.692-1.2h.072v.731c0 1.956-1.046 3-2.729 3a2.83 2.83 0 0 1-2.572-1.812l-1.959.816a4.875 4.875 0 0 0 4.531 3.01c2.633 0 4.808-1.547 4.808-5.313V26.39h-2.067v.84Zm-2.572 7.053a3.116 3.116 0 0 1-2.023-.997 3.103 3.103 0 0 1 2.023-5.193 2.891 2.891 0 0 1 2.018.974 2.877 2.877 0 0 1 .71 2.121 2.851 2.851 0 0 1-1.624 2.822c-.35.165-.73.258-1.116.273h.012Zm29.304-13.291H117v14.994h2.248v-5.685h3.137a4.682 4.682 0 0 0 4.622-2.792 4.664 4.664 0 0 0 0-3.726 4.665 4.665 0 0 0-2.733-2.538 4.682 4.682 0 0 0-1.889-.253h-.012Zm0 7.197h-3.137v-5.11h3.185a2.573 2.573 0 1 1 0 5.146l-.048-.036Zm13.858-2.159a4.214 4.214 0 0 0-4.002 2.291l1.995.828a2.127 2.127 0 0 1 2.044-1.104 2.166 2.166 0 0 1 2.403 1.932v.155a4.97 4.97 0 0 0-2.343-.575c-2.152 0-4.327 1.2-4.327 3.37a3.458 3.458 0 0 0 1.164 2.435 3.481 3.481 0 0 0 2.562.864 3.167 3.167 0 0 0 2.884-1.44h.072v1.2h2.164v-5.77c0-2.627-1.995-4.15-4.555-4.15l-.061-.036Zm-.276 8.217c-.733 0-1.755-.372-1.755-1.272 0-1.2 1.274-1.595 2.404-1.595a3.994 3.994 0 0 1 2.043.504 2.711 2.711 0 0 1-2.632 2.399l-.06-.036Zm12.777-7.857-2.572 6.502h-.072l-2.669-6.502h-2.404l4.003 9.093-2.284 5.05h2.344l6.154-14.143h-2.5Zm-20.205 9.596h2.248V20.992h-2.248v14.994ZM56.923 12.358a3.247 3.247 0 0 1-.902 2.399 3.498 3.498 0 0 1-2.644 1.068 3.792 3.792 0 0 1-3.472-2.34 3.772 3.772 0 0 1 .815-4.102 3.606 3.606 0 0 1 2.657-1.08c.508-.001 1.011.1 1.478.3.435.175.822.45 1.13.804l-.637.636a2.404 2.404 0 0 0-1.971-.852 2.794 2.794 0 0 0-2.616 1.782c-.135.35-.198.722-.185 1.097a2.826 2.826 0 0 0 1.71 2.638 2.843 2.843 0 0 0 3.098-.563c.37-.4.583-.92.601-1.463h-2.608v-.864h3.497c.033.178.049.359.049.54Zm5.505-2.999h-3.246v2.28h2.957v.863h-2.957v2.279h3.246v.888H58.22V8.47h4.207v.888Zm3.942 6.31h-.925v-6.31h-2.02v-.888h5.012v.888H66.37v6.31Zm5.601 0V8.47h.926v7.198h-.926Zm5.036 0h-.925v-6.31h-2.02v-.888h4.953v.888h-2.008v6.31Zm11.395-.936a3.754 3.754 0 0 1-5.289 0 3.883 3.883 0 0 1 0-5.338 3.728 3.728 0 0 1 4.077-.813c.454.188.866.465 1.212.813a3.87 3.87 0 0 1 0 5.338Zm-4.603-.6a2.78 2.78 0 0 0 3.918 0 3.068 3.068 0 0 0 0-4.126 2.78 2.78 0 0 0-3.918 0 3.067 3.067 0 0 0 0 4.126Zm6.971 1.536V8.47h1.13l3.51 5.602V8.471h.925v7.198h-.961l-3.666-5.866v5.866h-.938Z"/><path fill-rule="evenodd" clip-rule="evenodd" d="M85.758 8.416A3.612 3.612 0 0 0 83.2 9.478a3.762 3.762 0 0 0 0 5.171 3.634 3.634 0 0 0 5.116 0 3.75 3.75 0 0 0 0-5.17 3.606 3.606 0 0 0-2.558-1.063Zm-1.479.055a3.853 3.853 0 0 1 4.208.84l.002.001a3.99 3.99 0 0 1 0 5.504l-.002.002a3.874 3.874 0 0 1-5.458 0l-.003-.003a4.003 4.003 0 0 1 0-5.502l.002-.003c.358-.359.783-.644 1.251-.839Zm-30.905-.048a3.492 3.492 0 0 0-2.568 1.044 3.656 3.656 0 0 0 2.572 6.238h.003a3.383 3.383 0 0 0 2.553-1.031 3.13 3.13 0 0 0 .869-2.31l.12-.006h-.12c0-.14-.01-.281-.03-.42h-3.276v.624h2.612l-.004.124a2.385 2.385 0 0 1-.633 1.54l-.004.005a2.958 2.958 0 0 1-5.012-2.16 2.898 2.898 0 0 1 1.78-2.773c.36-.151.747-.228 1.138-.227a2.528 2.528 0 0 1 1.98.797l.465-.465a2.848 2.848 0 0 0-1.009-.688l-.002-.001a3.612 3.612 0 0 0-1.43-.29h-.004Zm3.669 3.932a3.365 3.365 0 0 1-.935 2.485 3.62 3.62 0 0 1-2.734 1.104 3.913 3.913 0 0 1-3.58-2.414 3.89 3.89 0 0 1 .84-4.231 3.727 3.727 0 0 1 2.744-1.116 3.853 3.853 0 0 1 1.523.31c.452.182.855.468 1.175.835l.073.085-.809.807-.084-.1a2.283 2.283 0 0 0-1.873-.81l-.007.001a2.673 2.673 0 0 0-2.503 1.705 2.66 2.66 0 0 0-.177 1.05v.006a2.708 2.708 0 0 0 1.638 2.526 2.723 2.723 0 0 0 2.964-.537c.32-.348.517-.79.56-1.26h-2.601v-1.103h3.718l.018.099c.033.184.05.37.05.558ZM58.1 8.351h4.448V9.48h-3.245v2.04h2.956v1.103h-2.956v2.039h3.245v1.128H58.1V8.35Zm.24.24v6.958h3.967V14.9h-3.245v-2.52h2.957v-.623h-2.957V9.24h3.245v-.648h-3.966Zm4.965-.24h5.253V9.48H66.49v6.31h-1.166v-6.31h-2.019V8.35Zm.24.24v.648h2.02v6.31h.685v-6.31h2.067v-.648h-4.772Zm8.306-.24h1.166v7.438H71.85V8.35Zm.24.24v6.958h.686V8.59h-.686Zm1.851-.24h5.193V9.48h-2.007v6.31h-1.166v-6.31h-2.02V8.35Zm.24.24v.648h2.02v6.31h.685v-6.31h2.007v-.648h-4.711Zm16.468-.24h1.316l3.323 5.304V8.351h1.166v7.438h-1.148l-3.48-5.567v5.567H90.65V8.35Zm.24.24v6.958h.697V9.384l3.853 6.165h.775V8.59h-.685v5.9l-3.697-5.9h-.943Zm-7.176 1.33a2.9 2.9 0 0 1 4.088 0l.004.005a3.187 3.187 0 0 1 0 4.288l-.004.004a2.9 2.9 0 0 1-4.088 0l.085-.085-.09.08a3.188 3.188 0 0 1 0-4.287l.005-.004Zm.172 4.13a2.659 2.659 0 0 0 3.744 0 2.947 2.947 0 0 0 0-3.961 2.659 2.659 0 0 0-3.744 0 2.947 2.947 0 0 0 0 3.96Z"/><path d="M12.615 39.221 27.34 23.98 12.627 8.765c-.393.237-.636.785-.636 1.503v27.465c.005.718.24 1.226.624 1.488ZM27.867 23.559l4.386-4.541L14.392 8.88c-.301-.18-.643-.276-.99-.277l14.463 14.954.002.002ZM27.867 24.401l-14.51 15.02c.364.006.723-.092 1.036-.284L32.29 28.97l-4.423-4.57ZM38.724 22.697l-5.944-3.38-4.506 4.665 4.54 4.694 5.908-3.371c1.257-.716 1.257-1.895.002-2.608Z"/></g><defs><clipPath id="a"><path fill="#fff" d="M0 0h162.266v47.982H0z"/></clipPath></defs></svg>