<svg width="163" height="48" viewBox="0 0 163 48" fill="none" xmlns="http://www.w3.org/2000/svg">
<g clip-path="url(#clip0_441_4251)">
<path d="M156.256 0.959636C157.595 0.959636 158.879 1.49043 159.825 2.43526C160.772 3.38008 161.304 4.66154 161.304 5.99772V41.984C161.304 43.3202 160.772 44.6017 159.825 45.5465C158.879 46.4913 157.595 47.0221 156.256 47.0221H6.00984C4.67096 47.0221 3.38691 46.4913 2.44018 45.5465C1.49344 44.6017 0.961574 43.3202 0.961574 41.984V5.99772C0.961574 4.66154 1.49344 3.38008 2.44018 2.43526C3.38691 1.49043 4.67096 0.959636 6.00984 0.959636H156.256ZM156.256 0H6.00984C4.41593 0 2.8873 0.631901 1.76024 1.75669C0.633178 2.88148 0 4.40703 0 5.99772V41.984C0 43.5747 0.633178 45.1003 1.76024 46.2251C2.8873 47.3499 4.41593 47.9818 6.00984 47.9818H156.256C157.85 47.9818 159.378 47.3499 160.505 46.2251C161.632 45.1003 162.266 43.5747 162.266 41.984V5.99772C162.266 4.40703 161.632 2.88148 160.505 1.75669C159.378 0.631901 157.85 0 156.256 0Z" fill="#0F0F54"/>
<path d="M81.9025 26.0901C80.8932 26.0948 79.908 26.3978 79.0711 26.9609C78.2342 27.5239 77.5832 28.3218 77.2002 29.2537C76.8172 30.1857 76.7195 31.21 76.9193 32.1973C77.1191 33.1847 77.6075 34.0908 78.3229 34.8014C79.0383 35.512 79.9485 35.9951 80.9388 36.1899C81.9291 36.3847 82.9549 36.2823 83.887 35.8958C84.819 35.5092 85.6154 34.8558 86.1757 34.018C86.7359 33.1801 87.0349 32.1954 87.0349 31.1881C87.0447 30.5139 86.9185 29.8446 86.6637 29.2201C86.409 28.5956 86.0309 28.0286 85.552 27.5529C85.0731 27.0772 84.5032 26.7026 83.8763 26.4513C83.2493 26.2 82.5781 26.0771 81.9025 26.0901ZM81.9025 34.283C81.2818 34.3263 80.6624 34.1822 80.1248 33.8696C79.5872 33.5569 79.1562 33.0901 78.888 32.5297C78.6198 31.9694 78.5267 31.3415 78.6208 30.7277C78.7149 30.1138 78.9918 29.5424 79.4156 29.0878C79.8394 28.6331 80.3905 28.3162 80.9972 28.1782C81.6039 28.0402 82.2381 28.0876 82.8175 28.3141C83.3968 28.5407 83.8945 28.9359 84.2458 29.4484C84.5971 29.961 84.7857 30.5671 84.7873 31.1881C84.8066 31.5816 84.7468 31.9749 84.6114 32.345C84.4761 32.715 84.2678 33.0543 83.9989 33.3427C83.7301 33.6312 83.4061 33.863 83.046 34.0244C82.686 34.1859 82.2972 34.2738 81.9025 34.283ZM70.7122 26.0901C69.7024 26.0924 68.7159 26.3934 67.8774 26.9551C67.039 27.5167 66.3861 28.3137 66.0013 29.2455C65.6165 30.1772 65.517 31.2019 65.7155 32.19C65.914 33.1782 66.4014 34.0854 67.1163 34.7972C67.8312 35.509 68.7415 35.9934 69.7321 36.1891C70.7226 36.3848 71.7492 36.2832 72.6819 35.897C73.6146 35.5108 74.4117 34.8573 74.9725 34.0192C75.5333 33.1811 75.8326 32.1959 75.8326 31.1881C75.8424 30.5139 75.7162 29.8446 75.4614 29.2201C75.2066 28.5956 74.8286 28.0286 74.3497 27.5529C73.8708 27.0772 73.3009 26.7026 72.6739 26.4513C72.047 26.2 71.3757 26.0771 70.7002 26.0901H70.7122ZM70.7122 34.283C70.0912 34.3287 69.4708 34.1868 68.9317 33.8758C68.3926 33.5647 67.9598 33.0989 67.6897 32.5389C67.4196 31.979 67.3247 31.3508 67.4173 30.7363C67.5099 30.1217 67.7857 29.5493 68.2089 29.0934C68.6321 28.6375 69.183 28.3193 69.7899 28.1802C70.3968 28.0411 71.0316 28.0876 71.6117 28.3137C72.1918 28.5397 72.6902 28.9347 73.0422 29.4474C73.3941 29.9601 73.5832 30.5667 73.5849 31.1881C73.6043 31.5816 73.5445 31.9749 73.4091 32.345C73.2737 32.715 73.0655 33.0543 72.7966 33.3427C72.5277 33.6312 72.2037 33.863 71.8437 34.0244C71.4836 34.1859 71.0948 34.2738 70.7002 34.283H70.7122ZM57.3824 27.6615V29.8206H62.5749C62.4935 30.8376 62.0699 31.7973 61.3729 32.5436C60.8534 33.0717 60.2289 33.4854 59.5396 33.7581C58.8502 34.0308 58.1113 34.1565 57.3704 34.127C55.8402 34.127 54.3727 33.5204 53.2908 32.4406C52.2088 31.3608 51.6009 29.8963 51.6009 28.3692C51.6009 26.8421 52.2088 25.3776 53.2908 24.2978C54.3727 23.218 55.8402 22.6114 57.3704 22.6114C58.8341 22.5876 60.2476 23.144 61.3008 24.1588L62.8273 22.6354C62.1163 21.9169 61.268 21.3481 60.3328 20.9628C59.3975 20.5775 58.3942 20.3835 57.3824 20.3922C56.3138 20.3507 55.2479 20.5249 54.2484 20.9044C53.2489 21.2839 52.3365 21.8608 51.5658 22.6006C50.7951 23.3404 50.1819 24.2279 49.7631 25.2098C49.3443 26.1918 49.1284 27.248 49.1284 28.3152C49.1284 29.3824 49.3443 30.4387 49.7631 31.4206C50.1819 32.4026 50.7951 33.29 51.5658 34.0298C52.3365 34.7697 53.2489 35.3466 54.2484 35.726C55.2479 36.1055 56.3138 36.2797 57.3824 36.2382C58.4112 36.2846 59.4381 36.1106 60.3939 35.7278C61.3496 35.345 62.2122 34.7624 62.9235 34.0191C64.1827 32.6383 64.8551 30.8232 64.7985 28.957C64.8024 28.5023 64.7622 28.0484 64.6783 27.6015L57.3824 27.6615ZM111.844 29.3408C111.53 28.4205 110.944 27.6168 110.163 27.0363C109.381 26.4558 108.442 26.1258 107.468 26.0901C106.811 26.0888 106.16 26.2221 105.556 26.4818C104.953 26.7414 104.409 27.1219 103.958 27.5997C103.507 28.0775 103.16 28.6425 102.937 29.2597C102.713 29.8769 102.619 30.5333 102.661 31.1881C102.646 31.8586 102.767 32.5251 103.016 33.1478C103.265 33.7706 103.638 34.3368 104.111 34.8126C104.585 35.2885 105.15 35.6642 105.772 35.9174C106.394 36.1706 107.061 36.296 107.733 36.2862C108.574 36.2907 109.402 36.0871 110.145 35.6935C110.888 35.3 111.521 34.7287 111.988 34.031L110.245 32.8315C109.985 33.2643 109.617 33.6222 109.176 33.8704C108.736 34.1185 108.239 34.2482 107.733 34.247C107.212 34.2668 106.698 34.1298 106.256 33.8538C105.814 33.5778 105.466 33.1757 105.257 32.6996L112.096 29.8806L111.844 29.3408ZM104.872 31.0442C104.848 30.6732 104.898 30.301 105.019 29.9495C105.141 29.5981 105.332 29.2743 105.58 28.9973C105.829 28.7202 106.13 28.4955 106.467 28.3361C106.803 28.1768 107.168 28.0861 107.541 28.0693C107.928 28.0438 108.315 28.1325 108.653 28.3245C108.99 28.5164 109.264 28.8031 109.44 29.1489L104.872 31.0442ZM99.319 35.9863H101.567V20.992H99.319V35.9863ZM95.641 27.2296H95.5569C95.2181 26.8517 94.8032 26.5494 94.3392 26.3427C93.8752 26.1359 93.3726 26.0294 92.8645 26.0301C91.551 26.0937 90.3123 26.6592 89.4052 27.6094C88.4981 28.5596 87.9921 29.8217 87.9921 31.1342C87.9921 32.4466 88.4981 33.7087 89.4052 34.6589C90.3123 35.6091 91.551 36.1746 92.8645 36.2382C93.3738 36.2468 93.8789 36.1438 94.344 35.9365C94.8092 35.7293 95.2232 35.4228 95.5569 35.0387H95.629V35.7704C95.629 37.7256 94.5833 38.7693 92.9005 38.7693C92.3401 38.7562 91.7962 38.5769 91.3381 38.2544C90.8801 37.9318 90.5286 37.4805 90.3283 36.9579L88.3691 37.7736C88.7379 38.6689 89.3663 39.4338 90.1737 39.9703C90.9811 40.5067 91.9306 40.7903 92.9005 40.7845C95.5328 40.7845 97.7084 39.2371 97.7084 35.4705V26.39H95.641V27.2296ZM93.0688 34.283C92.2935 34.2148 91.5719 33.8592 91.0462 33.2863C90.5206 32.7135 90.229 31.9649 90.229 31.1881C90.229 30.4114 90.5206 29.6628 91.0462 29.0899C91.5719 28.5171 92.2935 28.1615 93.0688 28.0933C93.4532 28.113 93.8298 28.2093 94.1764 28.3764C94.5229 28.5436 94.8325 28.7783 95.0867 29.0667C95.341 29.3551 95.5349 29.6914 95.6569 30.0557C95.7789 30.4201 95.8267 30.8051 95.7973 31.1881C95.8301 31.5728 95.7843 31.9601 95.6629 32.3267C95.5414 32.6932 95.3467 33.0314 95.0905 33.3207C94.8343 33.61 94.522 33.8444 94.1725 34.0098C93.8229 34.1752 93.4434 34.2681 93.0568 34.283H93.0688ZM122.373 20.992H117V35.9863H119.248V30.3005H122.385C123.025 30.3464 123.669 30.2601 124.274 30.047C124.88 29.8339 125.435 29.4986 125.905 29.0619C126.376 28.6252 126.75 28.0966 127.007 27.5089C127.263 26.9213 127.396 26.2872 127.396 25.6462C127.396 25.0053 127.263 24.3712 127.007 23.7835C126.75 23.1959 126.376 22.6672 125.905 22.2305C125.435 21.7939 124.88 21.4585 124.274 21.2454C123.669 21.0323 123.025 20.9461 122.385 20.992H122.373ZM122.373 28.1893H119.236V23.0792H122.421C123.105 23.0792 123.76 23.3503 124.244 23.8328C124.727 24.3154 124.999 24.9698 124.999 25.6522C124.999 26.3346 124.727 26.9891 124.244 27.4716C123.76 27.9542 123.105 28.2253 122.421 28.2253L122.373 28.1893ZM136.231 26.0301C135.413 25.9813 134.598 26.1721 133.887 26.5791C133.176 26.9862 132.6 27.5917 132.229 28.3212L134.224 29.1489C134.421 28.7871 134.719 28.4901 135.082 28.2942C135.444 28.0982 135.856 28.0118 136.268 28.0453C136.553 28.0121 136.842 28.0358 137.118 28.1153C137.394 28.1947 137.651 28.3282 137.875 28.508C138.099 28.6878 138.285 28.9102 138.421 29.1624C138.558 29.4145 138.643 29.6913 138.671 29.9766V30.1325C137.95 29.7511 137.144 29.5533 136.328 29.5567C134.176 29.5567 132.001 30.7563 132.001 32.9275C132.022 33.3904 132.136 33.8444 132.336 34.2626C132.536 34.6808 132.818 35.0548 133.165 35.3623C133.513 35.6698 133.918 35.9047 134.358 36.0531C134.798 36.2015 135.264 36.2604 135.727 36.2262C136.293 36.2668 136.859 36.1545 137.367 35.9013C137.874 35.648 138.304 35.263 138.611 34.7868H138.683V35.9863H140.847V30.2165C140.847 27.5895 138.852 26.0661 136.292 26.0661L136.231 26.0301ZM135.955 34.247C135.222 34.247 134.2 33.8751 134.2 32.9755C134.2 31.7759 135.474 31.3801 136.604 31.3801C137.318 31.3625 138.024 31.5365 138.647 31.8839C138.572 32.5333 138.264 33.1337 137.781 33.5746C137.297 34.0155 136.67 34.267 136.015 34.283L135.955 34.247ZM148.732 26.39L146.16 32.8915H146.088L143.419 26.39H141.015L145.018 35.4825L142.734 40.5326H145.078L151.232 26.39H148.732ZM128.527 35.9863H130.775V20.992H128.527V35.9863Z" fill="#0F0F54"/>
<path d="M56.9226 12.3578C56.943 12.7978 56.8736 13.2374 56.7187 13.6498C56.5637 14.0622 56.3264 14.4388 56.0211 14.7569C55.6802 15.1103 55.2686 15.388 54.8129 15.572C54.3573 15.7559 53.868 15.842 53.3768 15.8245C52.6315 15.8187 51.9046 15.5935 51.287 15.1772C50.6695 14.7609 50.1887 14.1719 49.9051 13.4841C49.6215 12.7963 49.5476 12.0403 49.6926 11.3107C49.8376 10.5812 50.1952 9.91061 50.7204 9.38297C51.0656 9.03125 51.4795 8.75396 51.9364 8.56826C52.3933 8.38257 52.8835 8.29241 53.3768 8.30338C53.8849 8.30169 54.388 8.40375 54.8552 8.60327C55.2901 8.77835 55.6773 9.05377 55.985 9.40696L55.348 10.0427C55.1081 9.75794 54.8051 9.53275 54.463 9.38494C54.1209 9.23712 53.749 9.17075 53.3768 9.19105C53.0013 9.18921 52.6294 9.26305 52.2832 9.40815C51.9371 9.55325 51.6238 9.76661 51.3623 10.0355C51.1008 10.3043 50.8964 10.6231 50.7613 10.9727C50.6262 11.3223 50.5632 11.6955 50.5762 12.07C50.5683 12.6291 50.7265 13.1781 51.0309 13.6476C51.3353 14.1171 51.7722 14.4861 52.2865 14.7081C52.8008 14.93 53.3694 14.995 53.9207 14.8949C54.472 14.7947 54.9812 14.5338 55.3841 14.1452C55.7539 13.7452 55.9672 13.2257 55.985 12.6817H53.3768V11.818H56.8745C56.9066 11.9962 56.9226 12.1768 56.9226 12.3578ZM62.4276 9.35898H59.1823V11.6381H62.1391V12.5018H59.1823V14.7809H62.4276V15.6686H58.2207V8.47132H62.4276V9.35898ZM66.37 15.6686H65.4445V9.35898H63.4252V8.47132H68.4374V9.35898H66.37V15.6686ZM71.9712 15.6686V8.47132H72.8967V15.6686H71.9712ZM77.0075 15.6686H76.0819V9.35898H74.0626V8.47132H79.0147V9.35898H77.0075V15.6686ZM88.4021 14.7329C87.6994 15.4303 86.7488 15.8217 85.7578 15.8217C84.7668 15.8217 83.8161 15.4303 83.1134 14.7329C82.4305 14.0114 82.0499 13.0565 82.0499 12.064C82.0499 11.0714 82.4305 10.1165 83.1134 9.39497C83.4598 9.04679 83.8718 8.77046 84.3256 8.58188C84.7794 8.39331 85.2662 8.29622 85.7578 8.29622C86.2494 8.29622 86.7361 8.39331 87.19 8.58188C87.6438 8.77046 88.0558 9.04679 88.4021 9.39497C89.0878 10.1151 89.4701 11.0705 89.4701 12.064C89.4701 13.0574 89.0878 14.0128 88.4021 14.7329ZM83.7986 14.1332C84.3189 14.6503 85.0234 14.9407 85.7578 14.9407C86.4922 14.9407 87.1966 14.6503 87.717 14.1332C88.2305 13.5682 88.515 12.8327 88.515 12.07C88.515 11.3072 88.2305 10.5717 87.717 10.0067C87.1966 9.48959 86.4922 9.19923 85.7578 9.19923C85.0234 9.19923 84.3189 9.48959 83.7986 10.0067C83.285 10.5717 83.0006 11.3072 83.0006 12.07C83.0006 12.8327 83.285 13.5682 83.7986 14.1332ZM90.77 15.6686V8.47132H91.8998L95.4096 14.0732V8.47132H96.3351V15.6686H95.3735L91.7075 9.80281V15.6686H90.77Z" fill="#0F0F54"/>
<path fill-rule="evenodd" clip-rule="evenodd" d="M85.7578 8.41618C85.282 8.41618 84.811 8.51013 84.3718 8.69262C83.9331 8.87492 83.5348 9.14198 83.1998 9.47842C82.5385 10.1775 82.1701 11.1025 82.1701 12.064C82.1701 13.0252 82.5384 13.9501 83.1995 14.6492C83.8796 15.3234 84.7992 15.7018 85.7578 15.7018C86.7164 15.7018 87.6361 15.3233 88.3162 14.6491C88.9799 13.9514 89.3499 13.026 89.3499 12.064C89.3499 11.1018 88.9798 10.1763 88.3159 9.47858C87.9809 9.14206 87.5826 8.87495 87.1438 8.69262C86.7046 8.51013 86.2335 8.41618 85.7578 8.41618ZM84.2794 8.47114C84.7479 8.27648 85.2503 8.17627 85.7578 8.17627C86.2652 8.17627 86.7677 8.27648 87.2362 8.47114C87.7046 8.6658 88.1299 8.95105 88.4874 9.31046L88.4893 9.31232C89.1962 10.0547 89.5903 11.0398 89.5903 12.064C89.5903 13.0881 89.1962 14.0732 88.4892 14.8156L88.4869 14.818C87.7617 15.5377 86.7805 15.9417 85.7578 15.9417C84.7351 15.9417 83.7539 15.5377 83.0287 14.818L83.026 14.8154C82.322 14.0716 81.9298 13.0871 81.9298 12.064C81.9298 11.0408 82.322 10.0564 83.0261 9.31259L83.0281 9.31043C83.3856 8.95102 83.8109 8.6658 84.2794 8.47114ZM53.3741 8.42331C52.8973 8.4127 52.4234 8.49985 51.9817 8.67936C51.5401 8.85886 51.14 9.12691 50.8063 9.46691L50.8057 9.46752C50.2971 9.9784 49.9509 10.6277 49.8105 11.3341C49.6701 12.0405 49.7416 12.7725 50.0163 13.4385C50.2909 14.1044 50.7563 14.6747 51.3543 15.0778C51.9523 15.4809 52.6561 15.6989 53.3777 15.7046L53.381 15.7046C53.8554 15.7215 54.3279 15.6384 54.7679 15.4608C55.2078 15.2832 55.6053 15.015 55.9344 14.6739C56.2284 14.3675 56.4569 14.0048 56.6061 13.6076C56.7554 13.2105 56.8222 12.7871 56.8025 12.3634L56.9226 12.3578L56.8024 12.3578C56.8024 12.2173 56.7923 12.077 56.7722 11.938H53.497V12.5618H56.1092L56.1052 12.6856C56.0864 13.2584 55.8618 13.8053 55.4724 14.2265L55.4677 14.2315C55.0478 14.6367 54.5169 14.9085 53.9422 15.0129C53.3676 15.1173 52.7749 15.0495 52.2388 14.8182C51.7027 14.5868 51.2473 14.2021 50.93 13.7127C50.6133 13.2241 50.4483 12.653 50.456 12.0712C50.4429 11.6815 50.5086 11.2933 50.6491 10.9295C50.79 10.5648 51.0033 10.2323 51.2761 9.9519C51.5489 9.67147 51.8756 9.44891 52.2367 9.29755C52.5966 9.14666 52.9834 9.06964 53.3738 9.07108C53.7634 9.05038 54.1526 9.12012 54.5107 9.27485C54.8299 9.41274 55.1166 9.61477 55.3533 9.86782L55.8192 9.40281C55.5371 9.10355 55.1929 8.86856 54.8102 8.71451L54.8079 8.71357C54.3558 8.52049 53.8689 8.4217 53.3772 8.42334L53.3741 8.42331ZM57.0428 12.3551C57.0635 12.8104 56.9916 13.2651 56.8312 13.6919C56.6705 14.1195 56.4244 14.5101 56.1079 14.8399C55.7553 15.2054 55.3293 15.4929 54.858 15.6832C54.3872 15.8732 53.8817 15.9623 53.3742 15.9445C52.6058 15.9381 51.8564 15.7058 51.2197 15.2766C50.5826 14.847 50.0866 14.2394 49.794 13.5298C49.5013 12.8201 49.425 12.0401 49.5747 11.2874C49.7243 10.5348 50.0931 9.84307 50.6348 9.29873C50.9915 8.93542 51.4191 8.649 51.8911 8.45717C52.3627 8.26547 52.8688 8.17231 53.3779 8.18342C53.9015 8.18189 54.4199 8.28706 54.9013 8.4925C55.3534 8.67469 55.7558 8.96108 56.0757 9.32826L56.1493 9.41268L55.3403 10.22L55.256 10.1199C55.0281 9.84937 54.7403 9.63544 54.4152 9.49502C54.0902 9.3546 53.737 9.29154 53.3833 9.31082L53.3762 9.31121C53.0169 9.30945 52.661 9.3799 52.3298 9.51874C51.9985 9.65759 51.6988 9.86176 51.4486 10.119C51.1983 10.3763 51.0027 10.6813 50.8734 11.0158C50.7442 11.3504 50.6839 11.7075 50.6963 12.0658L50.6965 12.0716C50.689 12.6071 50.8404 13.1328 51.1318 13.5824C51.4233 14.032 51.8417 14.3854 52.3342 14.598C52.8267 14.8105 53.3713 14.8728 53.8992 14.7769C54.426 14.6811 54.9126 14.4322 55.298 14.0613C55.6188 13.7133 55.8147 13.2703 55.8573 12.8017H53.2566V11.6981H56.975L56.9928 11.7968C57.026 11.9811 57.0427 12.1679 57.0428 12.3551ZM58.1005 8.35136H62.5478V9.47894H59.3025V11.5182H62.2593V12.6217H59.3025V14.661H62.5478V15.7885H58.1005V8.35136ZM58.3409 8.59127V15.5486H62.3074V14.9009H59.0621V12.3818H62.0189V11.7581H59.0621V9.23903H62.3074V8.59127H58.3409ZM63.305 8.35136H68.5576V9.47894H66.4902V15.7885H65.3243V9.47894H63.305V8.35136ZM63.5454 8.59127V9.23903H65.5647V15.5486H66.2498V9.23903H68.3172V8.59127H63.5454ZM71.851 8.35136H73.0169V15.7885H71.851V8.35136ZM72.0914 8.59127V15.5486H72.7765V8.59127H72.0914ZM73.9424 8.35136H79.1349V9.47894H77.1276V15.7885H75.9617V9.47894H73.9424V8.35136ZM74.1828 8.59127V9.23903H76.2021V15.5486H76.8873V9.23903H78.8945V8.59127H74.1828ZM90.6498 8.35136H91.9664L95.2894 13.6551V8.35136H96.4553V15.7885H95.3068L91.8277 10.2218V15.7885H90.6498V8.35136ZM90.8902 8.59127V15.5486H91.5873V9.38383L95.4402 15.5486H96.2149V8.59127H95.5298V14.4913L91.8332 8.59127H90.8902ZM83.7138 9.92174C84.2566 9.3822 84.9916 9.07928 85.7578 9.07928C86.5239 9.07928 87.2589 9.3822 87.8018 9.92174L87.8061 9.92604C88.3397 10.5131 88.6352 11.2774 88.6352 12.07C88.6352 12.8625 88.3396 13.6267 87.806 14.2138L87.8019 14.2183C87.259 14.7578 86.5239 15.0606 85.7578 15.0606C84.9916 15.0606 84.2566 14.7577 83.7138 14.2182L83.7986 14.1332L83.7095 14.2138C83.176 13.6267 82.8804 12.8625 82.8804 12.07C82.8804 11.2774 83.176 10.5132 83.7095 9.92614L83.7138 9.92174ZM83.8856 14.0503C84.3832 14.5437 85.0562 14.8207 85.7578 14.8207C86.4593 14.8207 87.1324 14.5437 87.63 14.0503C88.1222 13.5077 88.3948 12.8019 88.3948 12.07C88.3948 11.338 88.1222 10.6322 87.63 10.0896C87.1324 9.59616 86.4593 9.31919 85.7578 9.31919C85.0562 9.31919 84.3832 9.59616 83.8856 10.0896C83.3934 10.6322 83.1208 11.338 83.1208 12.07C83.1208 12.8019 83.3934 13.5077 83.8856 14.0503Z" fill="#0F0F54"/>
<path d="M12.615 39.2212L27.3398 23.9795L12.6274 8.76514C12.2344 9.00201 11.9912 9.55046 11.9912 10.2684V37.7326C11.9965 38.4505 12.2309 38.9589 12.615 39.2212Z" fill="#0F0F54"/>
<path d="M27.8671 23.5587L32.2532 19.018L14.3917 8.87999C14.0909 8.6991 13.7493 8.60355 13.4014 8.60303L27.8654 23.5569L27.8671 23.5587Z" fill="#0F0F54"/>
<path d="M27.8667 24.4014L13.3569 39.4208C13.7211 39.4271 14.0798 39.3287 14.3931 39.1366L32.2898 28.9712L27.8667 24.4014Z" fill="#0F0F54"/>
<path d="M38.7241 22.6973L32.7803 19.3174L28.2744 23.9819L32.8138 28.6756L38.7224 25.3047C39.9788 24.5887 39.9788 23.4098 38.7241 22.6973Z" fill="#0F0F54"/>
</g>
<defs>
<clipPath id="clip0_441_4251">
<rect width="162.266" height="47.9818" fill="white"/>
</clipPath>
</defs>
</svg>
