<svg width="43" height="39" fill="none" xmlns="http://www.w3.org/2000/svg"><path d="M20.217.058c-21.562.379-28.47 31.545-7.844 38.8a1.983 1.983 0 0 0 2.723-1.785V19.877c-.13-3.194-10.01 1.056-9.75 1.258a5.943 5.943 0 0 1-.589-1.56c6.417-4.125 11.154-2.358 11.154-2.358-1.834-.85-5.69-1.56-11.17 1.348.12-2.343.897-4.606 2.243-6.528a14.506 14.506 0 0 1 14.266.592 14.574 14.574 0 0 1 14.254-.603 13.763 13.763 0 0 1 2.28 6.49c-6.72-3.084-9.846-2.003-11.683-1.152 0 0 5.07-1.754 11.563 2.21a5.405 5.405 0 0 1-.54 1.595c-1.253-1.088-9.578-4.117-9.778-1.283v17.202a1.982 1.982 0 0 0 2.716 1.786C51.65 31.108 42.94-1.561 20.217.058Z" fill="#fff"/><path d="M20.965 20.376c1.104-1.271.846 7.417.958 8.208-.105.787.14 9.512-.958 8.222a74.172 74.172 0 0 1 0-16.43ZM17.846 23.182c.899-1.09.618 4.825.72 5.395-.106.596.188 6.457-.72 5.406-.38-3.59-.38-7.21 0-10.801ZM24.146 23.165c.883-1.08.634 4.838.745 5.413-.113.602.146 6.454-.745 5.413a53.136 53.136 0 0 1 0-10.826Z" fill="#FF4C45"/></svg>