<svg width="58" height="58" viewBox="0 0 58 58" fill="none" xmlns="http://www.w3.org/2000/svg">
<path d="M57.1973 29C57.1973 44.7056 44.4654 57.4375 28.7598 57.4375C13.0542 57.4375 0.322266 44.7056 0.322266 29C0.322266 13.2944 13.0542 0.5625 28.7598 0.5625C44.4654 0.5625 57.1973 13.2944 57.1973 29Z" fill="white"/>
<path d="M18.4834 22.303C18.4834 19.8797 20.4479 17.9153 22.8711 17.9153C25.2944 17.9153 27.2589 19.8797 27.2589 22.303V35.6969C27.2589 38.1201 25.2944 40.0846 22.8711 40.0846C20.4479 40.0846 18.4834 38.1201 18.4834 35.6969V22.303Z" fill="#0F0F54"/>
<path d="M30.2607 22.303C30.2607 19.8797 32.2252 17.9153 34.6485 17.9153C37.0718 17.9153 39.0362 19.8797 39.0362 22.303V35.6969C39.0362 38.1201 37.0718 40.0846 34.6485 40.0846C32.2252 40.0846 30.2607 38.1201 30.2607 35.6969V22.303Z" fill="#0F0F54"/>
</svg>
