<svg width="130" height="39" fill="none" xmlns="http://www.w3.org/2000/svg"><path d="M20.217.058c-21.562.379-28.47 31.545-7.844 38.8a1.983 1.983 0 0 0 2.723-1.785V19.877c-.13-3.194-10.01 1.056-9.75 1.258a5.943 5.943 0 0 1-.589-1.56c6.417-4.125 11.154-2.358 11.154-2.358-1.834-.85-5.69-1.56-11.17 1.348.12-2.343.897-4.606 2.243-6.528a14.506 14.506 0 0 1 14.266.592 14.574 14.574 0 0 1 14.254-.603 13.763 13.763 0 0 1 2.28 6.49c-6.72-3.084-9.846-2.003-11.683-1.152 0 0 5.07-1.754 11.563 2.21a5.405 5.405 0 0 1-.54 1.595c-1.253-1.088-9.578-4.117-9.778-1.283v17.202a1.982 1.982 0 0 0 2.716 1.786C51.65 31.108 42.94-1.561 20.217.058Z" fill="#2130AC"/><path d="M20.965 20.376c1.104-1.271.846 7.417.958 8.208-.105.787.14 9.512-.958 8.222a74.172 74.172 0 0 1 0-16.43ZM17.846 23.182c.899-1.09.618 4.825.72 5.395-.106.596.188 6.457-.72 5.406-.38-3.59-.38-7.21 0-10.801ZM24.146 23.165c.883-1.08.634 4.838.745 5.413-.113.602.146 6.454-.745 5.413a53.136 53.136 0 0 1 0-10.826Z" fill="#FF4C45"/><path d="M50.437 11.433a.49.49 0 0 1 .52-.501c.29.26 14.593-.611 14.106.501-.074.312.15 2.183-.142 2.4 0 .362-5.308.095-5.521.172-.14.39.27 14.965-.142 15.26-.169.324-2.351.095-2.647.16-1.17.637-.269-15.228-.536-15.42-.123-.043-5.628.13-5.493-.142-.291-.205-.088-2.11-.145-2.43ZM70.496 16.186c-.27-.39-2.004-.13-2.39-.2a.638.638 0 0 0-.674.697c.317.346-.767 13.564.683 12.74.604-.161 2.73.465 2.618-.687v-12.06a.68.68 0 0 0-.237-.49Z" fill="#0F0F54"/><path d="M70.54 11.105c-.275-.33-2.052-.112-2.433-.173a.602.602 0 0 0-.675.687c.124.6-.414 2.543.687 2.444.63-.118 2.687.425 2.615-.734-.066-.378.175-1.964-.193-2.224Z" fill="#FF4C45"/><path d="M74.978 15.246c.39-.575 1.461-.252 2.034-.331.892-.02.72 1.348.835 1.91 3.32-4.52 10.423-1.28 9.909 4.16-.081.284.208 8.261-.194 8.24-.26.39-1.902.13-2.299.207-.612-.008-.752-.182-.765-.78-.07-.842.195-8.19-.207-8.793-.802-2.618-4.636-2.64-5.83-.286-.78 1.377.02 7.997-.439 9.48-.172.688-1.987.266-2.451.376-.479 0-.728-.22-.73-.686.164-.452-.279-13.1.137-13.496ZM102.275 28.4c.052-.333.079-.67.081-1.006-4.03 4.745-12.077.626-11.725-5.256-.34-5.963 7.764-10.237 11.873-5.372.199-.65-.099-1.876.857-1.885.703.104 2.071-.365 2.161.675-.224 2.506.557 12.763-.606 14.908-1.51 3.64-6.041 4.81-9.577 3.669-.84-.39-3.003-.896-2.447-2.108.355-.332.871-1.795 1.526-1.496 2.399 1.768 7.357 1.346 7.857-2.13Zm-8.433-6.262c-.057 5.859 8.493 5.863 8.652.102.064-5.87-8.68-6.082-8.652-.102ZM108.962 11.674c-.119-1.143 2.066-.545 2.651-.686a.676.676 0 0 1 .628.686v17.069a.67.67 0 0 1-.189.52c-.266.355-2.042.092-2.418.172-.485 0-.669-.221-.674-.687.002-.005.002-17.074.002-17.074ZM130 28.75c-.041 1.051-1.768.565-2.423.674-.863.05-.718-1.105-.788-1.656-4.282 4.508-12.165.287-11.884-5.61-.323-5.994 7.984-10.262 12.066-5.372.148-.545-.032-2.015.869-1.908.626.075 2.107-.293 2.16.675V28.75Zm-11.884-6.595c-.051 5.924 8.626 5.831 8.651 0-.045-5.82-8.686-5.913-8.651.006v-.006Z" fill="#0F0F54"/></svg>